Patient4_TMGait_0pt3_01_right_27_EMG.mot
version=1
nRows=36
nColumns=33
inDegrees=no
endheader
time	1LAddLong	2LGlutMax	3LGlutMed	4LIliopsoas	5LSemiMemb	6LBicFemLong	7LRecFem	8LVastMed	9LVastLat	10LGasMed	11LTibAnt	12lTibPost	13LPeroneusLong	14LSol	15LExtDigLong	16LFlexDigLong	17RAddLong	18RGlutMax	19RGlutMed	20RIliopsoas	21RSemiMemb	22RBicFemLong	23RRecFem	24RVastMed	25RVastLat	26RGasMed	27RTibAnt	28RTibPost	29RPeroneusLong	30RSol	31RExtDigLong	32RFlexDigLong
51.275	-0.004425	0.015564	0.001526	0.010529	-0.090637	0.013733	0.059204	-0.002136	-0.051727	-0.018768	0.016479	0.014038	0.040283	0.070801	-0.02533	0.032043	-0.015869	0.014954	0.47028	-0.11536	-0.13153	-0.08255	-0.039063	-0.16449	-0.035706	-0.005188	0.076599	-0.002899	0.044098	-0.18387	-0.001526	-0.000153
51.276	0.006866	0.027618	-0.018768	0.008392	0.006714	-0.027771	0.022125	0.009003	-0.12116	-0.017395	-0.012512	0.014191	0.032196	0.071411	-0.014038	0.024109	-0.020447	-0.039063	0.020294	-0.097656	0.063019	-0.037994	-0.085907	-0.035858	-0.00824	-0.006714	0.058899	-0.008087	-0.018311	-0.17303	0.003204	-0.000916
51.277	0.010223	0.064545	0.017548	0.009308	0.059509	-0.034943	0.012054	0.020294	-0.12665	-0.007324	0.036316	0.014343	0.018921	0.059052	0.017242	0.023346	-0.016022	-0.024719	-0.1506	-0.058441	0.16541	0.17609	-0.024414	-0.056305	-0.058289	-0.005951	0.063019	-0.007172	-0.040741	-0.13519	0	-0.004272
51.278	0.008545	0.046082	0.096436	0.009918	0.009766	-0.022583	0.042572	0.012665	-0.1236	0.036926	0.062561	0.019073	-0.003815	0.037689	-0.004272	0.014191	-0.017242	-0.053711	-0.14511	0.055237	0.068359	0.24689	-0.069122	0	-0.060425	-0.005188	0.060577	-0.007324	-0.018311	-0.066223	0.000305	-0.007629
51.279	-0.002136	0.031433	0.053253	0.014801	-0.015564	-0.027161	0.052795	0.004272	-0.061035	0.027618	0.074463	0.014191	0.025177	0.03418	0.025024	0.015717	-0.018158	0.001068	-0.067902	0.066528	-0.06897	0.10315	-0.037384	0.015411	-0.070038	-0.002899	0.071259	-0.003815	-0.014648	-0.010223	-0.001373	-0.012665
51.28	-0.004578	0.048676	0.032501	-0.009308	-0.01709	-0.008698	0.075531	-0.012054	-0.011597	0.000916	-0.070038	0.013733	0.077972	0.081635	0.000763	0.032043	-0.021667	-0.023499	-0.023499	0.12436	-0.069885	0.028229	-0.055847	0.02243	-0.008545	-0.002899	0.060577	-0.007782	-0.028687	-0.036774	0.002441	-0.010376
51.281	-0.009155	0.072784	0.003967	-0.00412	-0.052338	0.054779	0.10498	-0.007477	0.00824	0.005341	-0.12375	0.008545	0.092316	0.069122	0.044556	0.00885	-0.001984	-0.037079	0.029297	0.13031	0.13382	-0.103	-0.057068	0.016327	0.036316	-0.006866	0.069885	-0.002289	-0.03067	-0.047455	0.002136	-0.014038
51.282	-0.01236	0.11063	0.031738	0.001526	-0.032654	0.067444	0.037842	0.005798	0.052032	0.013275	-0.058136	0	0.041351	0.10681	0.027008	0.02243	0.000458	-0.035706	0.009155	0.063629	0.078888	-0.081329	-0.041046	-0.000916	0.035553	-0.002747	0.062103	-0.00061	-0.005798	-0.039063	0.001678	-0.010223
51.283	0.004883	0.12589	0.023956	-0.002594	0.046082	0.056	0.069885	0.004578	0.003815	0.004883	-0.028534	0.005798	0.018463	0.13519	0.121	0.020905	0.005188	-0.003357	0.065308	0.025787	0.001068	-0.06073	-0.034332	-0.013733	0.071564	-0.002136	0.06073	-0.003815	-0.02182	-0.066376	-0.006409	-0.013885
51.284	0.010529	0.1564	0.019073	0.01236	0.050659	0.078583	0.098114	0.014038	-0.006409	0.003815	0.009308	0.003967	0.027771	0.13473	-0.050354	-0.000458	0.016174	-0.001373	0.074921	0.049286	-0.019531	-0.097961	-0.12863	-0.019379	0.10788	-0.000763	0.053253	0.001221	-0.028992	-0.049591	0.002289	-0.021057
51.285	0.016785	0.17014	0.004578	0.002594	0.056152	0.044708	0.076447	0.004272	0.000153	0.003052	-0.001221	0.008545	0.003052	0.13672	-0.11749	-0.001984	0.028076	0.02594	0.057526	0.083771	-0.093536	-0.028534	-0.092621	-0.018921	0.11108	-0.000305	0.041809	-0.007782	-0.033722	-0.049438	-0.000458	-0.022888
51.286	0.010986	0.13779	-0.021057	-0.007324	0.043335	0.071106	0.039215	-0.007629	-0.013123	-0.006256	0.01297	0.005035	-0.013885	0.072021	-0.076599	0.001984	0.016022	0.16953	-0.007935	0.05722	0.050507	-0.019226	-0.012512	-0.029297	0.10574	-0.006714	0.048981	-0.005493	-0.024872	-0.046844	0.00061	-0.018158
51.287	0.010376	0.068207	-0.041351	-0.003204	0.015411	0.068207	-0.030365	-0.001526	0.009308	-0.010223	0.093231	0.007019	-0.006561	0.051117	-0.058594	-0.016632	0.005341	0.080109	0.010834	-0.008392	0.014648	-0.02594	-0.067139	-0.047455	0.019836	-0.002136	0.037384	-0.005188	-0.022888	-0.048065	-0.000153	-0.023499
51.288	0.006104	0.014954	-0.061188	0.006104	0.010071	0.053253	0.023499	0.007019	0.036926	-0.007935	0.15289	0.002136	-0.015106	0.072632	-0.025177	-0.017395	-0.001984	0.072937	-0.00061	-0.033264	0.04425	-0.083466	-0.041656	-0.032959	-0.034637	0	0.033569	-0.004883	-0.045013	-0.041656	0.002441	-0.020447
51.289	0	-0.025024	-0.063934	0.004578	-0.029144	0.048981	0.10513	-0.008698	-0.020599	-0.005188	0.18784	-0.00473	-0.05127	0.10056	0.040588	-0.02121	-0.001831	0.019073	0.011292	-0.05127	0.010529	-0.086823	-0.06485	-0.024719	-0.003662	-0.003662	0.034637	-0.006409	-0.041351	-0.008392	-0.000916	-0.022583
51.29	0.002747	0.016937	-0.021973	0.014038	-0.087585	-0.045471	0.15198	-0.001831	-0.041962	0.003815	0.061188	-0.005951	-0.07843	0.099487	0.048828	-0.022888	0.004425	0.019684	0.047302	-0.029144	0.017395	-0.030975	-0.066681	-0.048065	-0.016022	-0.00061	0.031433	-0.008087	-0.030975	0.012665	0	-0.018616
51.291	0.009918	0.079956	-0.041351	0.019379	-0.021057	-0.11795	0.12878	0.001678	-0.037231	-0.014954	-0.049896	-0.002289	-0.080109	0.10513	0.040741	-0.018768	0.004272	0.054626	0.021362	-0.019226	-0.015869	0.009155	-0.092773	-0.077972	0.044098	-0.007324	0.028839	-0.00351	-0.042419	-0.018768	0.000153	-0.015259
51.292	0.011444	0.10681	-0.008545	0.010529	0.029449	-0.062103	0.094604	0.021515	-0.055237	-0.00946	-0.099945	-0.003204	-0.074921	0.11383	0.096893	-0.04425	-0.000458	0.084381	-0.090485	0.009003	-0.10971	-0.031586	-0.11337	0.012207	0.086212	-0.003662	0.031433	-0.00412	-0.020447	-0.076904	-0.000916	-0.011292
51.293	0.003052	0.078583	0.028229	0.002136	0.068817	-0.058594	0.078125	0.03418	-0.03891	0.00061	-0.074158	-0.003815	-0.13275	0.098572	0.03067	-0.035248	0.012207	0.038452	-0.027618	0.020447	-0.060425	-0.032654	-0.04425	-0.03952	0.010071	-0.012207	0.010071	-0.003967	0.008087	-0.10544	0.001831	-0.013733
51.294	-0.008698	0.047302	0.014648	-0.026703	0.04303	-0.038147	0.091705	0.028839	-0.034027	0.010986	-0.081482	-0.004425	-0.14221	0.10956	0.044708	-0.033417	0.022888	0.045776	0.016174	-0.098419	-0.075684	0.019226	0.03891	-0.018005	-0.000153	-0.020752	-0.003052	-0.005951	0.006866	-0.10315	0.002594	-0.007477
51.295	-0.007019	0.058594	-0.024719	0.003052	0.019836	-0.030518	0.05661	0.019989	-0.022583	0.006409	0.019531	-0.00473	-0.13473	0.1059	0.26062	-0.035553	0.016937	0.062103	-0.070801	-0.1651	-0.14343	0.092773	-0.015411	-0.029144	-0.032654	-0.014648	0.002136	-0.010223	-0.019073	-0.083466	0.002441	-0.012817
51.296	0.011139	0.019073	-0.077209	0.016022	0.020905	-0.0737	-0.035706	0.005798	0.11063	-0.032349	0.046692	-0.00061	-0.067596	0.12634	0.062714	-0.03479	0.012207	0.13962	-0.085297	-0.11658	-0.12482	0.087585	-0.18463	-0.048065	-0.068054	0.007172	0.016174	-0.003815	-0.36209	-0.070038	0.001678	-0.013428
51.297	0.028992	0.014496	-0.07431	0.014954	0.036469	-0.064392	-0.071564	-0.003052	0.21103	-0.060577	0.055237	-0.005646	-0.01236	0.19058	0.29251	-0.034485	0.004578	0.10757	-0.088196	-0.02533	-0.11627	0.14801	-0.083923	-0.071564	-0.001831	0.014954	0.051117	-0.005951	-0.69519	-0.050964	-0.003204	-0.019379
51.298	0.040741	0.042877	-0.055389	0.010376	0.037079	-0.014038	-0.064697	-0.023956	0.2356	-0.080566	-0.019989	-0.010986	0.014954	0.20142	-0.2565	-0.024567	0.000153	0.10452	-0.030518	0.099945	-0.011902	0.16419	-0.099182	-0.10452	0.10376	0.009918	0.048981	0.002441	0.012665	-0.042572	0.000763	-0.019989
51.299	0.033112	0.037231	-0.058289	0.005493	0.016174	0.036316	-0.099792	-0.029907	0.17181	-0.05127	-0.24826	-0.006561	-0.044556	0.1355	-0.06958	-0.027313	0.00351	0.079956	0.047455	0.18768	0.1532	0.14038	-0.27725	-0.04837	0.099335	0.00946	0.024719	-0.00824	0.82108	-0.041962	-0.001068	-0.014038
51.3	0.016632	0.058594	-0.013275	-0.004425	-0.035553	0.056	-0.053406	-0.032806	0.045624	-0.043182	0.023346	-0.007782	-0.10544	0.15503	-0.24109	-0.011292	-0.007324	0.13107	0.027161	0.19226	0.11063	0.069733	-0.23117	-0.040741	0.048523	0.000763	-0.00824	-0.003357	0.25864	-0.036011	-0.003052	-0.018921
51.301	0.006561	0.14679	-0.010681	0.010223	-0.079498	0.075378	0.012512	-0.016327	-0.051117	-0.034027	-0.10895	-0.01236	-0.086365	0.10223	-0.004578	-0.016632	-0.015106	0.14114	-0.093231	0.084839	0.060577	-0.019531	-0.17227	-0.037384	0.002899	-0.002747	-0.044556	-0.001221	-0.18616	-0.010986	0.000305	-0.018311
51.302	-0.003815	0.14587	0.022736	0.022278	-0.070953	0.10529	0.025635	-0.014496	-0.075226	-0.015717	-0.092926	-0.00473	-0.097809	0.080414	-0.39368	-0.035553	0.011292	0.11444	-0.10407	0.024719	0.12405	-0.082245	-0.15335	-0.052338	0.00824	0	-0.10208	-0.004578	-0.021515	-0.015259	-0.001678	-0.02594
51.303	-0.015564	0.13458	0.007782	0.007019	-0.075073	0.12955	0.064545	-0.00824	-0.054016	-0.010223	-0.033112	-0.005798	-0.1062	-0.016937	-0.18784	-0.052185	0.015717	0.088196	0.094604	0.017242	0.093384	-0.006866	-0.11307	-0.054321	0.029755	-0.00946	-0.094299	-0.003967	0.12238	-0.016174	0.001984	-0.024261
51.304	-0.013428	0.13931	-0.00946	0.012207	-0.028381	0.1088	0.02182	-0.011749	0.096741	-0.025787	-0.027771	-0.006104	-0.10239	-0.071259	-0.1207	-0.022278	0.016937	0.027313	-0.000153	0.015106	-0.069275	0.020905	-0.12024	-0.016022	0.014038	-0.006256	-0.14908	-0.002899	0.2095	-0.012207	-0.00061	-0.026855
51.305	-0.016479	0.035706	0.058136	0.001373	-0.031891	0.080872	0.043182	-0.011292	0.11475	-0.02533	-0.082092	-0.004425	-0.091858	-0.031433	-0.28442	-0.020447	0.020752	-0.003204	0.085602	0.024719	-0.086212	0.02121	-0.066071	0.031738	0.035706	-0.003662	0.056	-0.005341	0.32867	-0.019226	0.00351	-0.021515
51.306	-0.019684	0.056915	0.10193	0.00351	-0.046234	0.053711	0.091858	-0.014496	0.007019	0.001678	-0.12543	-0.003815	-0.12192	-0.005493	0.010681	-0.023193	0.017548	-0.009155	0.12558	0.0383	0.082855	-0.014038	-0.046692	0.007019	-0.017395	-0.00061	0.11047	-0.003052	0.18372	-0.063934	-0.00061	-0.012054
51.307	-0.013428	0.1294	0.073395	-0.011902	0.04425	-0.007629	0.066528	-0.01709	-0.15625	-0.002441	-0.079346	-0.000916	-0.074921	0.06012	-0.10468	-0.025024	0.019226	0.036011	-0.046692	0.058594	0.10361	-0.039673	-0.042267	-0.024109	-0.01358	0.007935	0.15579	-0.002136	-0.35797	-0.076141	0.001373	-0.00946
51.308	-0.010529	0.19531	0.064087	-0.004425	0.07843	-0.069885	0.028839	-0.015564	-0.13504	-0.024872	-0.082092	-0.000305	-0.053406	0.048981	0.55557	-0.023499	0.006866	0.025787	0.029907	0.033722	0.053101	-0.08606	-0.086517	0.06012	0.042267	0.012054	0.13977	-0.001221	-0.1329	-0.068512	-0.00061	-0.012817
51.309	0.002441	0.17136	0.067291	0.003662	0.075531	-0.095215	-0.048523	-0.012054	-0.062866	-0.023041	-0.004883	-0.004883	-0.078583	-0.044861	-0.25101	-0.013123	-0.029297	0.007019	0.076599	0.000305	-0.27481	-0.037689	-0.14984	-0.007019	0.038757	0.009766	0.31235	-0.005493	-0.099335	-0.00061	-0.000153	-0.007477
51.31	0.011292	0.12665	0.034943	0.017395	0.077209	-0.016632	-0.14999	0.00351	0.033569	-0.001068	0.10178	-0.005493	-0.07431	-0.11505	-0.19852	-0.040283	-0.02243	-0.035095	0.088348	-0.02655	-0.23575	-0.024872	-0.19852	0.042267	0.057831	0.016785	0.13412	-0.000916	-0.30518	0.085297	-0.005188	-0.00885
